<?xml version="1.0" encoding="UTF-8"?>
<svg id="Layer_1" data-name="Layer 1" xmlns="http://www.w3.org/2000/svg" viewBox="0 0 1080 418.24">
  <defs>
    <style>
      .cls-1 {
        fill: #ff3b43;
      }
    </style>
  </defs>
  <g>
    <path class="cls-1" d="M341.05,114.68h10.63v106.38h-10.63V114.68Z"/>
    <path class="cls-1" d="M374.39,142.38h10.12v14.1c4.05-5.4,8.53-9.44,13.45-12.11,4.92-2.68,10.27-4.01,16.05-4.01s11.1,1.5,15.66,4.48c4.56,2.99,7.92,7.01,10.09,12.08,2.17,5.06,3.25,12.94,3.25,23.65v40.5h-10.12v-37.53c0-9.06-.38-15.11-1.13-18.15-1.17-5.21-3.42-9.12-6.75-11.75-3.33-2.63-7.67-3.94-13.02-3.94-6.12,0-11.61,2.02-16.46,6.07-4.85,4.05-8.04,9.06-9.58,15.04-.97,3.91-1.45,11.04-1.45,21.41v28.85h-10.12v-78.68Z"/>
    <path class="cls-1" d="M473.54,113.16h10.12v29.22h16.05v8.75h-16.05v69.93h-10.12v-69.93h-13.81v-8.75h13.81v-29.22Z"/>
    <path class="cls-1" d="M581.14,194.95l8.53,4.48c-2.8,5.5-6.03,9.93-9.7,13.31-3.67,3.38-7.79,5.94-12.38,7.7-4.59,1.76-9.77,2.64-15.56,2.64-12.84,0-22.87-4.21-30.11-12.62-7.24-8.41-10.86-17.92-10.86-28.53,0-9.98,3.06-18.87,9.19-26.68,7.77-9.93,18.17-14.9,31.2-14.9s24.13,5.09,32.14,15.26c5.69,7.18,8.59,16.15,8.69,26.9h-70.8c.19,9.14,3.11,16.63,8.76,22.48,5.65,5.84,12.62,8.77,20.93,8.77,4.01,0,7.9-.7,11.69-2.09,3.79-1.39,7.01-3.24,9.67-5.55,2.65-2.31,5.53-6.03,8.62-11.17Zm0-21.19c-1.35-5.4-3.32-9.71-5.9-12.94-2.58-3.23-6-5.83-10.24-7.81-4.25-1.98-8.71-2.96-13.39-2.96-7.72,0-14.36,2.48-19.91,7.45-4.06,3.62-7.12,9.04-9.2,16.27h58.65Z"/>
    <path class="cls-1" d="M607.32,142.38h10.34v11.5c3.08-4.53,6.34-7.92,9.76-10.16,3.42-2.24,6.99-3.36,10.7-3.36,2.8,0,5.79,.89,8.97,2.68l-5.28,8.53c-2.12-.91-3.91-1.37-5.35-1.37-3.38,0-6.63,1.39-9.76,4.16-3.13,2.77-5.52,7.08-7.16,12.91-1.25,4.48-1.88,13.55-1.88,27.19v26.61h-10.34v-78.68Z"/>
    <path class="cls-1" d="M666.89,114.68h19.73l24.66,74.2,24.88-74.2h19.72l17.84,106.38h-19.58l-11.41-67.18-22.6,67.18h-17.84l-22.4-67.18-11.68,67.18h-19.74l18.42-106.38Z"/>
    <path class="cls-1" d="M824.63,140.35c7.42,0,14.4,1.86,20.94,5.57,6.53,3.71,11.63,8.75,15.29,15.11,3.66,6.36,5.5,13.23,5.5,20.61s-1.84,14.37-5.53,20.83c-3.69,6.46-8.71,11.51-15.08,15.15s-13.38,5.46-21.04,5.46c-11.28,0-20.91-4.01-28.89-12.04-7.98-8.03-11.97-17.78-11.97-29.25,0-12.29,4.51-22.54,13.52-30.73,7.91-7.13,16.99-10.7,27.26-10.7Zm.33,18.59c-6.13,0-11.24,2.13-15.32,6.4-4.08,4.27-6.12,9.73-6.12,16.38s2.02,12.39,6.05,16.63c4.03,4.24,9.14,6.36,15.32,6.36s11.32-2.14,15.43-6.44c4.1-4.29,6.16-9.81,6.16-16.56s-2.02-12.23-6.05-16.45c-4.03-4.22-9.19-6.33-15.47-6.33Z"/>
    <path class="cls-1" d="M874.06,142.38h20.11l19.88,46.43,19.83-46.43h20.01l-33.48,78.68h-12.8l-33.55-78.68Z"/>
    <path class="cls-1" d="M1044.26,187.43h-63.42c.91,5.59,3.36,10.04,7.34,13.34,3.98,3.3,9.05,4.95,15.22,4.95,7.38,0,13.71-2.58,19.02-7.74l16.63,7.81c-4.15,5.88-9.11,10.23-14.9,13.05-5.79,2.82-12.66,4.23-20.61,4.23-12.34,0-22.39-3.89-30.16-11.68-7.76-7.78-11.64-17.54-11.64-29.25s3.87-21.97,11.61-29.9c7.74-7.93,17.44-11.9,29.11-11.9,12.39,0,22.47,3.97,30.23,11.9,7.76,7.93,11.64,18.4,11.64,31.42l-.07,3.76Zm-19.74-15.55c-1.3-4.39-3.88-7.95-7.72-10.7-3.84-2.75-8.29-4.12-13.36-4.12-5.51,0-10.33,1.54-14.49,4.63-2.61,1.93-5.02,5.33-7.24,10.2h42.81Z"/>
    <g>
      <path class="cls-1" d="M424.38,264.43h7.95c4.43,0,7.43,.18,9,.54,2.37,.54,4.29,1.71,5.78,3.49,1.48,1.78,2.22,3.98,2.22,6.58,0,2.17-.51,4.08-1.53,5.73-1.02,1.65-2.48,2.89-4.38,3.73-1.9,.84-4.52,1.27-7.86,1.29l14.35,18.52h-4.93l-14.35-18.52h-2.25v18.52h-3.99v-39.89Zm3.99,3.91v13.56l6.87,.06c2.66,0,4.63-.25,5.91-.76,1.28-.51,2.27-1.32,2.99-2.43s1.07-2.35,1.07-3.73-.36-2.55-1.09-3.65c-.72-1.09-1.68-1.87-2.85-2.35-1.18-.47-3.13-.71-5.87-.71h-7.04Z"/>
      <path class="cls-1" d="M509.86,294.53l3.2,1.68c-1.05,2.06-2.26,3.73-3.64,4.99-1.37,1.27-2.92,2.23-4.64,2.89-1.72,.66-3.67,.99-5.84,.99-4.81,0-8.58-1.58-11.29-4.73-2.71-3.15-4.07-6.72-4.07-10.7,0-3.74,1.15-7.08,3.45-10.01,2.91-3.72,6.81-5.59,11.7-5.59s9.05,1.91,12.05,5.72c2.14,2.69,3.22,6.06,3.26,10.09h-26.55c.07,3.43,1.17,6.24,3.28,8.43,2.12,2.19,4.73,3.29,7.85,3.29,1.5,0,2.96-.26,4.39-.78,1.42-.52,2.63-1.22,3.62-2.08,1-.86,2.07-2.26,3.23-4.19Zm0-7.95c-.51-2.02-1.24-3.64-2.21-4.85-.97-1.21-2.25-2.19-3.84-2.93-1.59-.74-3.27-1.11-5.02-1.11-2.9,0-5.39,.93-7.47,2.79-1.52,1.36-2.67,3.39-3.45,6.1h21.99Z"/>
      <path class="cls-1" d="M548.32,263.43h3.8v40.89h-3.8v-40.89Z"/>
      <path class="cls-1" d="M601.74,274.06c4.55,0,8.31,1.65,11.3,4.94,2.72,3,4.08,6.55,4.08,10.66s-1.44,7.73-4.31,10.81c-2.87,3.08-6.56,4.62-11.07,4.62s-8.23-1.54-11.1-4.62c-2.87-3.08-4.31-6.68-4.31-10.81s1.36-7.63,4.08-10.63c2.99-3.31,6.76-4.96,11.33-4.96Zm-.01,3.72c-3.16,0-5.87,1.17-8.14,3.5-2.27,2.33-3.4,5.15-3.4,8.46,0,2.13,.52,4.12,1.55,5.97,1.03,1.84,2.43,3.27,4.19,4.27,1.76,1,3.69,1.51,5.8,1.51s4.04-.5,5.8-1.51c1.76-1,3.16-2.43,4.19-4.27s1.55-3.83,1.55-5.97c0-3.31-1.14-6.13-3.42-8.46-2.28-2.33-4.98-3.5-8.12-3.5Z"/>
      <path class="cls-1" d="M680.55,280.94l-3.01,1.87c-2.6-3.45-6.15-5.18-10.64-5.18-3.59,0-6.58,1.16-8.95,3.47-2.37,2.31-3.56,5.12-3.56,8.42,0,2.15,.55,4.17,1.64,6.07,1.09,1.9,2.59,3.37,4.5,4.41,1.91,1.05,4.04,1.57,6.41,1.57,4.33,0,7.87-1.73,10.62-5.18l3.01,1.98c-1.41,2.12-3.3,3.77-5.68,4.94-2.38,1.17-5.08,1.76-8.12,1.76-4.66,0-8.53-1.48-11.61-4.45-3.07-2.96-4.61-6.57-4.61-10.82,0-2.86,.72-5.51,2.16-7.96,1.44-2.45,3.41-4.36,5.93-5.74,2.51-1.37,5.32-2.06,8.43-2.06,1.95,0,3.84,.3,5.65,.89s3.36,1.37,4.62,2.33c1.27,.96,2.34,2.18,3.23,3.66Z"/>
      <path class="cls-1" d="M745.01,274.82v29.51h-3.74v-5.07c-1.59,1.94-3.38,3.39-5.36,4.37-1.98,.98-4.14,1.46-6.49,1.46-4.18,0-7.74-1.51-10.7-4.54-2.96-3.03-4.43-6.71-4.43-11.05s1.49-7.88,4.47-10.9c2.98-3.02,6.57-4.53,10.77-4.53,2.42,0,4.61,.52,6.58,1.55,1.96,1.03,3.68,2.58,5.17,4.64v-5.42h3.74Zm-15.17,2.9c-2.11,0-4.06,.52-5.85,1.56-1.79,1.04-3.21,2.5-4.27,4.38-1.06,1.88-1.58,3.86-1.58,5.96s.53,4.06,1.6,5.96c1.06,1.9,2.5,3.37,4.29,4.43,1.8,1.06,3.72,1.58,5.78,1.58s4.05-.52,5.91-1.57c1.86-1.05,3.29-2.47,4.29-4.25,1-1.79,1.5-3.8,1.5-6.04,0-3.41-1.12-6.27-3.37-8.56s-5.02-3.44-8.3-3.44Z"/>
      <path class="cls-1" d="M784.63,263.86h3.8v10.96h6.02v3.28h-6.02v26.22h-3.8v-26.22h-5.18v-3.28h5.18v-10.96Z"/>
      <path class="cls-1" d="M829.23,262.67c.86,0,1.6,.31,2.21,.92,.61,.61,.92,1.36,.92,2.22s-.31,1.58-.92,2.2c-.61,.61-1.35,.92-2.21,.92s-1.58-.31-2.19-.92c-.61-.61-.92-1.35-.92-2.2s.31-1.61,.92-2.22c.61-.61,1.34-.92,2.19-.92Zm-1.88,12.15h3.8v29.51h-3.8v-29.51Z"/>
      <path class="cls-1" d="M880.76,274.06c4.55,0,8.31,1.65,11.3,4.94,2.72,3,4.08,6.55,4.08,10.66s-1.44,7.73-4.31,10.81c-2.87,3.08-6.56,4.62-11.07,4.62s-8.23-1.54-11.1-4.62c-2.87-3.08-4.31-6.68-4.31-10.81s1.36-7.63,4.08-10.63c2.99-3.31,6.76-4.96,11.33-4.96Zm-.01,3.72c-3.16,0-5.87,1.17-8.14,3.5-2.27,2.33-3.4,5.15-3.4,8.46,0,2.13,.52,4.12,1.55,5.97,1.03,1.84,2.43,3.27,4.19,4.27,1.76,1,3.69,1.51,5.8,1.51s4.04-.5,5.8-1.51c1.76-1,3.16-2.43,4.19-4.27s1.55-3.83,1.55-5.97c0-3.31-1.14-6.13-3.42-8.46-2.28-2.33-4.98-3.5-8.12-3.5Z"/>
      <path class="cls-1" d="M930.93,274.82h3.8v5.29c1.52-2.02,3.2-3.54,5.04-4.54s3.85-1.51,6.02-1.51,4.16,.56,5.87,1.68c1.71,1.12,2.97,2.63,3.78,4.53s1.22,4.85,1.22,8.87v15.19h-3.8v-14.07c0-3.4-.14-5.67-.42-6.81-.44-1.95-1.28-3.42-2.53-4.41-1.25-.99-2.87-1.48-4.88-1.48-2.3,0-4.35,.76-6.17,2.28-1.82,1.52-3.01,3.4-3.59,5.64-.36,1.46-.54,4.14-.54,8.03v10.82h-3.8v-29.51Z"/>
    </g>
  </g>
  <g>
    <path class="cls-1" d="M174.7,237.08v.5c0-.08,0-.17,0-.25s0-.17,0-.25Z"/>
    <path class="cls-1" d="M285.54,192.38c0,25.97-16.02,57.29-47.61,93.1-19.75,22.37-33.81,35.21-47.21,46.55,.9-3.04,.71-10.29,.71-13.72v-22.74c10.33-9.57,15.75-15.21,26.68-27.59,26.82-30.4,41-56.54,41-75.6,0-54.31-44.18-98.49-98.5-98.49s-98.49,44.18-98.49,98.49c0,19.07,14.18,45.2,41,75.6,.04,.05,.09,.1,.14,.16,2.07,2.35,4.18,4.67,6.3,6.95,6.44,6.95,13,13.53,19.26,19.56,6.67,6.39,13.01,12.14,18.56,17.02v-62.03c-29.8-6.12-52.2-32.49-52.2-64.1,0-36.14,29.29-65.44,65.43-65.44s65.44,29.3,65.44,65.44c0,5.53-.69,10.89-1.98,16.02-3.34,13.28-10.74,24.95-20.81,33.61-3.64,3.13-7.63,5.87-11.89,8.14v-15.26c0-5.68-3.26-10.6-8.01-12.99,3.09-2.39,5.8-5.26,8.01-8.48,4.1-5.99,6.5-13.23,6.5-21.03,0-4.26-.71-8.35-2.03-12.16,0,0,0-.01,0-.02-5.04-14.6-18.91-25.08-35.23-25.08-20.58,0-37.26,16.68-37.26,37.26s16.35,36.93,36.64,37.25c.2,0,.41,0,.62,0,.01,0,.03,0,.04,0,.85,.02,1.69,.12,2.5,.3,6.52,1.35,11.44,7.08,11.55,13.98v93.59c.39,13.61-7.77,20.12-15.05,20.13-7.72,.01-14.96-6.74-16.42-7.93-7-5.68-17.93-14.9-33.68-30.09-2.07-1.99-4.18-4.06-6.3-6.18-6.63-6.6-13.41-13.7-19.96-21.13-31.6-35.81-47.62-67.13-47.62-93.1,0-68.89,56.05-124.93,124.93-124.93s124.93,56.05,124.93,124.93Z"/>
  </g>
</svg>